<?xml version="1.0" encoding="UTF-8"?>
<svg version="1.1" xmlns="http://www.w3.org/2000/svg" width="512" height="512">
<path d="M0 0 C4.29219301 0.8584386 6.21843882 1.48445281 9.7890625 3.6328125 C10.71678467 4.18404785 11.64450684 4.7352832 12.6003418 5.30322266 C13.598479 5.90440918 14.59661621 6.5055957 15.625 7.125 C24.57306876 12.43330435 33.57770225 17.59838903 42.6875 22.625 C53.2295036 28.45153044 63.71352355 34.36790322 74.15771484 40.36767578 C79.68537106 43.54220846 85.21706174 46.70968568 90.75 49.875 C91.34332123 50.21455719 91.93664246 50.55411438 92.54794312 50.90396118 C100.92117999 55.69420911 109.32330688 60.4292193 117.75 65.125 C126.89735486 70.22369118 135.95855435 75.45444878 144.99023438 80.75488281 C153.04659335 85.47150524 161.1760561 90.04707153 169.33032227 94.59179688 C177.55921409 99.18203684 185.7555765 103.82675304 193.9375 108.5 C194.52237183 108.83352478 195.10724365 109.16704956 195.70983887 109.51068115 C216.19661812 121.19661812 216.19661812 121.19661812 218 123 C218.09565123 124.4674896 218.12188309 125.93956884 218.12025452 127.41017151 C218.12231651 128.83843262 218.12231651 128.83843262 218.12442017 130.29554749 C218.12082489 131.34858566 218.11722961 132.40162384 218.11352539 133.48657227 C218.11367142 134.58887177 218.11381744 135.69117126 218.1139679 136.82687378 C218.11326821 140.49007092 218.10547324 144.15321794 218.09765625 147.81640625 C218.09579227 150.34846468 218.09436827 152.88052348 218.09336853 155.4125824 C218.08993346 161.40848249 218.08204269 167.40436089 218.07201904 173.40025228 C218.06085677 180.22481058 218.05534717 187.04936972 218.05032361 193.87393486 C218.03986004 207.91596664 218.0222613 221.95798233 218 236 C214.59748722 234.66448226 211.43627891 233.21960904 208.25390625 231.41796875 C207.34584229 230.90500244 206.43777832 230.39203613 205.50219727 229.86352539 C204.53209717 229.31043701 203.56199707 228.75734863 202.5625 228.1875 C201.54406006 227.6092749 200.52562012 227.0310498 199.47631836 226.43530273 C190.78518 221.48378838 182.16997484 216.40897155 173.5703125 211.30078125 C167.87675159 207.92054282 162.15957169 204.5816896 156.4375 201.25 C148.06698963 196.37479233 139.70452032 191.48619105 131.3493042 186.58483887 C121.34215831 180.71444674 111.33178497 174.84965544 101.3125 169 C100.29671875 168.40638672 99.2809375 167.81277344 98.234375 167.20117188 C97.30753906 166.66041016 96.38070312 166.11964844 95.42578125 165.5625 C94.61536377 165.08941406 93.80494629 164.61632812 92.9699707 164.12890625 C91.66714198 163.38231064 90.34306148 162.67153074 89 162 C84.54817213 191.9243397 84.54817213 191.9243397 91.19873047 219.87011719 C97.09598252 225.53221211 104.42705179 228.07832597 112.05908203 230.56396484 C118.28042057 232.68502024 123.77033357 236.21904219 129.37097168 239.60113525 C132.23200363 241.31215963 135.13876069 242.93757207 138.04296875 244.57421875 C139.0695459 245.18056152 140.09612305 245.7869043 141.15380859 246.41162109 C143.88762793 248.02707919 143.88762793 248.02707919 146.53759766 248.96728516 C149.12153505 250.05601316 150.26164989 250.78130994 152 253 C152.41243418 255.57501996 152.62516588 257.88201288 152.69775391 260.46923828 C152.7297309 261.21948493 152.7617079 261.96973158 152.79465389 262.74271297 C153.13757988 271.69084839 153.12530763 280.64454803 153.09765625 289.59765625 C153.09578497 291.41181906 153.09436443 293.22598238 153.09336853 295.04014587 C153.08959917 299.75323956 153.07981846 304.4663011 153.06866455 309.17938232 C153.05832854 314.01346401 153.05384513 318.84755102 153.04882812 323.68164062 C153.0381896 333.12110766 153.02118267 342.56055113 153 352 C150.62025985 350.73685859 148.24121744 349.47243185 145.86254883 348.20727539 C145.19572334 347.85350075 144.52889786 347.4997261 143.84186554 347.13523102 C138.03549184 344.04482958 132.35611926 340.77599937 126.6875 337.4375 C113.8266305 329.8983696 100.91286194 322.44972804 88 315 C88 361.86 88 408.72 88 457 C82.06 460.3 76.12 463.6 70 467 C66.15668801 469.21483172 62.32210719 471.43721327 58.5 473.6875 C56.45736968 474.88469219 54.41438782 476.08128475 52.37109375 477.27734375 C51.33194824 477.88562012 50.29280273 478.49389648 49.22216797 479.12060547 C42.58856344 482.98978926 35.92942297 486.81491216 29.27124023 490.64160156 C24.38976949 493.45096356 19.51897547 496.27331193 14.6875 499.16796875 C13.50111938 499.87711426 13.50111938 499.87711426 12.29077148 500.60058594 C10.85187193 501.46389414 9.41622642 502.33266011 7.98461914 503.20800781 C3.3298936 506 3.3298936 506 0 506 C0 339.02 0 172.04 0 0 Z " fill="#FF9200" transform="translate(265,3)"/>
<path d="M0 0 C0 167.31 0 334.62 0 507 C-4.40412687 505.53195771 -7.47882978 504.32284118 -11.359375 502.05078125 C-12.88884766 501.16132812 -12.88884766 501.16132812 -14.44921875 500.25390625 C-15.53847656 499.61324219 -16.62773437 498.97257812 -17.75 498.3125 C-18.90720972 497.63743361 -20.06476857 496.96296538 -21.22265625 496.2890625 C-23.62570582 494.88984195 -26.0272392 493.48807065 -28.42773438 492.08447266 C-33.93786957 488.8655055 -39.47019738 485.68501446 -45 482.5 C-47.13807397 481.26571704 -49.27609446 480.03134144 -51.4140625 478.796875 C-55.41930676 476.48573918 -59.42740284 474.17970622 -63.43914795 471.87988281 C-65.8404023 470.50303474 -68.24055526 469.12427308 -70.640625 467.74536133 C-72.33486603 466.77303297 -74.03069581 465.8034746 -75.7265625 464.83398438 C-76.75265625 464.24423828 -77.77875 463.65449219 -78.8359375 463.046875 C-79.73876465 462.52963867 -80.6415918 462.01240234 -81.57177734 461.47949219 C-82.77374756 460.74714355 -82.77374756 460.74714355 -84 460 C-84.69960854 459.57679889 -85.39921708 459.15359778 -86.12002587 458.71757239 C-88 457 -88 457 -88.50320601 454.74226791 C-88.50548434 453.40432332 -88.50548434 453.40432332 -88.50780869 452.03934956 C-88.51925627 451.00925811 -88.53070386 449.97916667 -88.54249835 448.91786033 C-88.53473793 447.78266005 -88.52697752 446.64745978 -88.51898193 445.4778595 C-88.52648319 444.27473183 -88.53398444 443.07160416 -88.541713 441.83201808 C-88.55854004 438.48643693 -88.55740414 435.14172013 -88.54880548 431.79616416 C-88.54387335 428.19081716 -88.56192962 424.58557804 -88.57722473 420.98027039 C-88.60057198 414.73189159 -88.60928373 408.48362895 -88.60811615 402.23520851 C-88.60644908 393.20101858 -88.62675945 384.16698382 -88.65247145 375.13283523 C-88.69358663 360.47634108 -88.71687402 345.81987477 -88.72900391 331.16333008 C-88.74082652 316.92404502 -88.76101187 302.68481242 -88.79248047 288.44555664 C-88.79538462 287.12947385 -88.79538462 287.12947385 -88.79834744 285.78680352 C-88.8081118 281.38529816 -88.81804095 276.98379319 -88.82805204 272.58228838 C-88.91091928 236.05488335 -88.96487652 199.52748059 -89 163 C-92.55896094 165.05201251 -96.11777309 167.10428281 -99.6764555 169.15677834 C-100.88373077 169.85303678 -102.09104464 170.54922829 -103.29839993 171.24534798 C-111.98902001 176.25614252 -120.66536753 181.28942465 -129.3125 186.375 C-130.51190011 187.07928987 -131.71136525 187.783469 -132.91088867 188.48754883 C-135.37574264 189.93446325 -137.84033261 191.38182557 -140.3046875 192.82958984 C-146.47191903 196.45236918 -152.64212302 200.07008145 -158.8125 203.6875 C-159.41508636 204.04078369 -160.01767273 204.39406738 -160.63851929 204.75805664 C-171.82191538 211.31411932 -183.01275161 217.85734525 -194.21630859 224.37890625 C-196.09737226 225.47435115 -197.97789249 226.57072967 -199.85791016 227.66796875 C-202.54991158 229.23904149 -205.24348754 230.8073789 -207.9375 232.375 C-208.7433252 232.84599121 -209.54915039 233.31698242 -210.37939453 233.80224609 C-215.8857589 237 -215.8857589 237 -217 237 C-217 199.38 -217 161.76 -217 123 C-201.38314236 114.07608135 -185.77257435 105.1900652 -170.0703125 96.42578125 C-164.04587844 93.04318595 -158.0817249 89.56259074 -152.125 86.0625 C-142.52281393 80.42038573 -132.81779673 74.98597531 -123.06689453 69.60571289 C-115.65084148 65.50272978 -108.30484825 61.29754021 -101 57 C-91.44053137 51.37603639 -81.77705316 45.96344799 -72.06640625 40.60546875 C-63.6648984 35.95721183 -55.36403877 31.15669318 -47.08935547 26.28710938 C-38.22752524 21.09036616 -29.25917589 16.09814312 -20.2578125 11.1484375 C-14.37363385 7.90642645 -8.56403795 4.58667181 -2.84130859 1.06640625 C-1 0 -1 0 0 0 Z " fill="#FF8100" transform="translate(247,2)"/>
</svg>
